# xmcd CD database file
#
# Track frame offsets:
#	150
#	12280
#	28232
#	43410
#	57402
#	73077
#	88582
#	103275
#	119562
#	134555
#	151642
#	166180
#	183990
#	200932
#	217035
#	231307
#	245915
#	261017
#	275207
#	294617
#	311930
#	329257
#
# Disc length: 4599 seconds
#
# Revision: 4
# Processed by: cddbd v1.5.2PL0 Copyright (c) Steve Scherf et al.
# Submitted via: CDex 1.51
#
DISCID=6a11f516
DTITLE=Reba McEntire - Celebrating 20 Years
DYEAR=1900
DGENRE=Country
TTITLE0=How Blue
TTITLE1=Somebody Should Leave
TTITLE2=Whoever's In New England
TTITLE3=Little Rock
TTITLE4=What Am I Gonna Do About You
TTITLE5=One Promise Too Late
TTITLE6=The Last One To Know
TTITLE7=Love Will Find It's Way To You
TTITLE8=I Know How He Feels
TTITLE9=New Fool At An Old Game
TTITLE10=Walk On
TTITLE11=You Lie
TTITLE12=Rumor Has It
TTITLE13=For My Broken Heart
TTITLE14=Is There Life Out There
TTITLE15=The Greatest Man I Ever Knew
TTITLE16=The Heart Won't Lie (Duet With Vince Gill)
TTITLE17=It's Your Call
TTITLE18=Does He Love You (Duet With Linda Davis)
TTITLE19=Till You Love Me
TTITLE20=The Heart Is A Lonely Hunter
TTITLE21=And Still
EXTD=
EXTT0=
EXTT1=
EXTT2=
EXTT3=
EXTT4=
EXTT5=
EXTT6=
EXTT7=
EXTT8=
EXTT9=
EXTT10=
EXTT11=
EXTT12=
EXTT13=
EXTT14=
EXTT15=
EXTT16=
EXTT17=
EXTT18=
EXTT19=
EXTT20=
EXTT21=
PLAYORDER=
